HIERARCHY
ROOT Hips
{
	OFFSET 144.012100 89.812180 255.264099
	CHANNELS 6 Xposition Yposition Zposition Zrotation Yrotation Xrotation 
	JOINT LeftUpLeg
	{
		OFFSET 0.103456 1.857834 10.548498
		CHANNELS 3 Zrotation Yrotation Xrotation
		JOINT LeftLeg
		{
			OFFSET 43.499992 -0.000040 -0.000011
			CHANNELS 3 Zrotation Yrotation Xrotation
			JOINT LeftFoot
			{
				OFFSET 42.372192 0.000015 -0.000003
				CHANNELS 3 Zrotation Yrotation Xrotation
				JOINT LeftToe
				{
					OFFSET 17.300003 0.000002 0.000015
					CHANNELS 3 Zrotation Yrotation Xrotation
					End Site
					{
						OFFSET 0.000000 0.000000 0.000000
					}
				}
			}
		}
	}
	JOINT RightUpLeg
	{
		OFFSET 0.103455 1.857831 -10.548502
		CHANNELS 3 Zrotation Yrotation Xrotation
		JOINT RightLeg
		{
			OFFSET 43.500038 -0.000019 0.000008
			CHANNELS 3 Zrotation Yrotation Xrotation
			JOINT RightFoot
			{
				OFFSET 42.372265 -0.000019 0.000008
				CHANNELS 3 Zrotation Yrotation Xrotation
				JOINT RightToe
				{
					OFFSET 17.299984 -0.000007 0.000027
					CHANNELS 3 Zrotation Yrotation Xrotation
					End Site
					{
						OFFSET 0.000000 0.000000 0.000000
					}
				}
			}
		}
	}
	JOINT Spine
	{
		OFFSET 6.901969 -2.603726 -0.000003
		CHANNELS 3 Zrotation Yrotation Xrotation
		JOINT Spine1
		{
			OFFSET 12.588097 -0.000010 0.000004
			CHANNELS 3 Zrotation Yrotation Xrotation
			JOINT Spine2
			{
				OFFSET 12.343201 0.000004 0.000005
				CHANNELS 3 Zrotation Yrotation Xrotation
				JOINT Neck
				{
					OFFSET 25.832905 0.000013 -0.000010
					CHANNELS 3 Zrotation Yrotation Xrotation
					JOINT Head
					{
						OFFSET 11.766600 -0.000021 0.000000
						CHANNELS 3 Zrotation Yrotation Xrotation
						End Site
						{
							OFFSET 0.000000 0.000000 0.000000
						}
					}
				}
				JOINT LeftShoulder
				{
					OFFSET 19.745911 -1.480368 6.000092
					CHANNELS 3 Zrotation Yrotation Xrotation
					JOINT LeftArm
					{
						OFFSET 11.284128 -0.000006 -0.000023
						CHANNELS 3 Zrotation Yrotation Xrotation
						JOINT LeftForeArm
						{
							OFFSET 33.000057 -0.000001 0.000025
							CHANNELS 3 Zrotation Yrotation Xrotation
							JOINT LeftHand
							{
								OFFSET 25.200012 0.000014 0.000015
								CHANNELS 3 Zrotation Yrotation Xrotation
								End Site
								{
									OFFSET 0.000000 0.000000 0.000000
								}
							}
						}
					}
				}
				JOINT RightShoulder
				{
					OFFSET 19.746101 -1.480364 -6.000078
					CHANNELS 3 Zrotation Yrotation Xrotation
					JOINT RightArm
					{
						OFFSET 11.284142 -0.000002 -0.000011
						CHANNELS 3 Zrotation Yrotation Xrotation
						JOINT RightForeArm
						{
							OFFSET 33.000099 0.000007 0.000015
							CHANNELS 3 Zrotation Yrotation Xrotation
							JOINT RightHand
							{
								OFFSET 25.199781 0.000143 0.000408
								CHANNELS 3 Zrotation Yrotation Xrotation
								End Site
								{
									OFFSET 0.000000 0.000000 0.000000
								}
							}
						}
					}
				}
			}
		}
	}
}
MOTION
Frames: 11
Frame Time: 0.033333
144.012100 89.812180 255.264099 87.597408 -0.524351 90.925363 157.970323 -7.597598 159.972524 -35.106097 0.990248 -10.440894 81.708638 6.817555 -1.907007 21.454555 0.003102 0.000002 170.212084 -8.538803 -171.703443 -22.123879 -2.334070 12.340032 89.462023 -8.370539 -0.151428 21.454560 -0.003108 -0.000017 5.505241 0.839896 0.045412 0.998385 1.679382 0.089298 0.680133 1.680011 0.079174 11.620863 0.517878 -3.458100 -28.241673 -2.833937 -2.282916 -69.740787 -81.807505 -112.809590 -7.367442 5.772974 11.806944 -23.714890 -15.509741 1.155000 15.822997 -13.135120 -9.738017 -70.021822 86.969461 111.985685 -0.321500 -11.855719 22.396535 -28.108824 13.225840 -1.116531 4.518798 16.340883 -5.886686 
144.011093 89.813667 255.265396 87.599669 -0.525841 90.934017 157.972372 -7.589402 159.973549 -35.095336 0.995915 -10.440892 81.705885 6.817560 -1.906598 21.454553 0.003084 -0.000001 170.213259 -8.537285 -171.702787 -22.119486 -2.334474 12.343480 89.459120 -8.372688 -0.150163 21.454558 -0.003113 -0.000016 5.504526 0.839250 0.045410 0.996962 1.678096 0.090031 0.678725 1.678737 0.079894 11.619387 0.518113 -3.462463 -28.234537 -2.832227 -2.288518 -69.712360 -81.813980 -112.837307 -7.362281 5.764956 11.777513 -23.738722 -15.523454 1.156212 15.803695 -13.144742 -9.716544 -70.087208 86.969393 111.920272 -0.323070 -11.848151 22.379590 -28.108201 13.225371 -1.116521 4.515386 16.347860 -5.886603 
143.964905 89.830917 255.297501 87.633335 -0.536280 91.208721 158.025893 -7.431207 160.213138 -34.885529 1.005073 -10.448399 81.690456 6.820262 -1.918287 21.454551 0.003085 -0.000001 170.283883 -8.551613 -171.667693 -21.981461 -2.367919 12.478910 89.419525 -8.456223 -0.098196 21.454555 -0.003116 -0.000018 5.493073 0.822309 0.045405 0.974141 1.644159 0.102187 0.655890 1.644880 0.092248 11.571813 0.549238 -3.614261 -28.022511 -2.799388 -2.467157 -69.299536 -81.941534 -113.237617 -7.431466 5.468741 11.311070 -24.191125 -16.061354 1.197131 15.666231 -13.288318 -9.643968 -70.750528 86.977091 111.255859 -0.249123 -11.798450 22.174044 -28.234551 13.271968 -1.116527 4.360005 16.409181 -6.061913 
143.912704 89.839081 255.317596 87.630569 -0.565373 91.457975 157.972904 -7.371311 160.471442 -34.843968 0.981489 -10.429816 81.657261 6.807304 -1.920735 21.454553 0.003092 0.000001 170.283719 -8.603610 -171.576620 -21.923024 -2.423388 12.578273 89.400845 -8.516784 -0.062820 21.454555 -0.003123 -0.000018 5.495203 0.815607 0.045410 0.978380 1.630767 0.103384 0.660148 1.631509 0.093510 11.335157 0.546576 -3.736563 -27.812781 -2.742464 -2.626844 -69.243263 -81.978109 -113.290176 -7.522466 5.119430 11.053420 -24.649658 -16.554558 1.235462 15.686219 -13.544742 -9.651295 -71.071615 86.919867 110.940304 -0.293504 -11.821870 22.251590 -28.331809 13.319782 -1.116516 4.454446 16.426100 -5.791648 
143.871002 89.829147 255.335907 87.599389 -0.574775 91.611750 157.915722 -7.410308 160.635312 -34.904712 0.920553 -10.400592 81.680211 6.792877 -1.899984 21.454557 0.003097 0.000001 170.279471 -8.664398 -171.519273 -21.915166 -2.437611 12.655999 89.389971 -8.570485 -0.074707 21.454562 -0.003101 -0.000016 5.504578 0.821320 0.045406 0.997238 1.642111 0.114923 0.678994 1.642906 0.105001 11.243717 0.577638 -3.835567 -27.852065 -2.743402 -2.726195 -68.861004 -82.028776 -113.667592 -7.468458 5.008811 10.730120 -25.267522 -17.223420 1.287660 15.610703 -13.586447 -9.546619 -72.167342 86.888250 109.847364 -0.438271 -11.687091 22.410947 -28.333320 13.316296 -1.116514 4.518233 16.410839 -5.941222 
143.836594 89.805450 255.356995 87.535622 -0.575120 91.684785 157.897499 -7.509401 160.592542 -34.967741 0.913376 -10.320388 81.854879 6.751801 -1.837244 21.454550 0.003094 -0.000001 170.270346 -8.735193 -171.381549 -21.948750 -2.463458 12.636851 89.425577 -8.546065 -0.009305 21.454558 -0.003106 -0.000016 5.515662 0.834696 0.045402 1.019460 1.668837 0.121613 0.701220 1.669673 0.111529 11.178365 0.707836 -3.883701 -27.877458 -2.746080 -2.758609 -69.038043 -81.971382 -113.496188 -7.504513 4.866336 10.572802 -25.977448 -17.676012 1.327983 15.641497 -13.896489 -9.669749 -72.724159 86.930755 109.285684 -0.599345 -11.637059 22.501831 -28.414852 13.368046 -1.121330 4.593179 16.480828 -5.842054 
143.798096 89.783310 255.382996 87.415582 -0.577139 91.674177 157.887855 -7.722000 160.473710 -35.058292 0.858853 -10.249774 82.063616 6.726873 -1.735913 21.454553 0.003091 -0.000001 170.263926 -8.870997 -171.284793 -21.959828 -2.476614 12.587737 89.418152 -8.525351 -0.094930 21.454562 -0.003096 -0.000015 5.524694 0.866264 0.045405 1.037599 1.731930 0.126253 0.719351 1.732812 0.115781 11.186164 0.806747 -3.890446 -27.930542 -2.772120 -2.740058 -68.982295 -82.044458 -113.544703 -7.257409 4.909979 10.823122 -26.742419 -18.407517 1.387405 15.295872 -13.600362 -9.643323 -73.973715 87.016528 108.026504 -0.843202 -11.603430 22.751606 -28.649932 13.404870 -1.127984 4.815306 16.583202 -5.623290 
143.783493 89.770844 255.410004 87.352123 -0.579567 91.548891 157.927156 -7.917009 160.185940 -35.124757 0.850127 -10.117795 82.200937 6.636443 -1.730847 21.454553 0.003093 -0.000001 170.294866 -8.940403 -171.232282 -21.933775 -2.489192 12.479416 89.437393 -8.450932 -0.087491 21.454557 -0.003104 -0.000017 5.531990 0.887849 0.045405 1.052213 1.775130 0.118532 0.733940 1.775957 0.107804 11.243844 1.017356 -3.825680 -27.988515 -2.898037 -2.584417 -69.257702 -82.114296 -113.261940 -6.876298 5.074580 10.796253 -27.824294 -18.960363 1.441724 14.862382 -13.640841 -9.056569 -77.572289 87.113981 104.415465 -1.364488 -11.680992 23.134990 -28.975158 13.500972 -1.140164 4.798506 16.955583 -5.691972 
143.782394 89.766083 255.436996 87.332452 -0.579685 91.358718 157.953452 -8.043712 159.952730 -35.219922 0.866344 -10.072305 82.242035 6.597932 -1.761826 21.454550 0.003091 0.000000 170.312707 -8.960398 -171.213513 -21.950468 -2.495260 12.360219 89.465349 -8.377344 -0.135333 21.454557 -0.003114 -0.000018 5.542204 0.897448 0.050035 1.072536 1.794370 0.107827 0.754262 1.795128 0.096988 11.195435 1.099085 -3.746214 -27.785421 -2.831310 -2.524868 -70.120867 -81.995875 -112.410072 -6.874643 5.160239 11.451162 -28.516158 -19.457631 1.486143 14.336096 -12.959101 -8.721134 -78.809373 87.321236 103.156395 -1.745593 -12.045512 23.186790 -29.405952 13.587350 -1.153803 4.611121 17.123479 -6.029095 
143.802200 89.764542 255.464401 87.351808 -0.574316 91.142399 157.959353 -8.106513 159.902651 -35.347189 0.837519 -10.125676 82.203943 6.619170 -1.833645 21.454551 0.003093 -0.000000 170.314687 -8.926705 -171.192749 -22.010848 -2.499683 12.232977 89.477732 -8.301373 -0.200313 21.454560 -0.003100 -0.000016 5.552924 0.899241 0.063832 1.094213 1.797804 0.135626 0.775933 1.798729 0.124752 11.107330 1.149509 -3.710524 -27.453959 -2.702015 -2.547360 -70.714622 -81.995772 -111.815531 -7.025520 5.373783 11.427436 -29.115703 -19.642289 1.509303 14.074960 -12.193956 -8.016225 -80.336938 87.616403 101.598278 -1.824310 -12.365370 22.786790 -29.762399 13.596181 -1.161152 4.432488 16.670919 -6.167184 
143.829605 89.758018 255.492599 87.369266 -0.547882 90.927570 157.985431 -8.099796 159.918334 -35.445205 0.865163 -10.263488 82.187420 6.681902 -1.980279 21.454555 0.003097 -0.000001 170.335164 -8.879106 -171.142083 -22.085470 -2.510406 12.067008 89.542755 -8.185358 -0.182173 21.454557 -0.003095 -0.000016 5.571965 0.903962 0.087955 1.132669 1.799960 0.184190 0.814392 1.801176 0.173318 10.928651 1.214735 -3.685187 -27.121534 -2.659464 -2.535843 -70.785786 -82.121092 -111.731800 -7.344034 5.468039 11.513485 -29.076344 -19.453868 1.496526 14.044611 -12.222910 -7.554191 -81.044204 87.789193 100.873206 -1.980431 -12.594281 22.208546 -29.733084 13.465421 -1.152181 4.158644 16.243419 -6.503660 
